{
  "accessors": [
    {
      "bufferView": 2,
      "componentType": 5126,
      "count": 1118,
      "max": [
        0.06283170729875565,
        0.2225811630487442,
        0.19620369374752045
      ],
      "min": [
        -0.06283170729875565,
        0.1645146906375885,
        0.1381320208311081
      ],
      "type": "VEC3"
    },
    {
      "bufferView": 2,
      "byteOffset": 13416,
      "componentType": 5126,
      "count": 1118,
      "max": [
        0.9999262690544128,
        0.9999849796295166,
        0.999691903591156
      ],
      "min": [
        -0.9999262690544128,
        -0.9996042847633362,
        -0.9996724724769592
      ],
      "type": "VEC3"
    },
    {
      "bufferView": 1,
      "componentType": 5126,
      "count": 1118,
      "max": [
        0.9998999834060669,
        0.7616099715232849
      ],
      "min": [
        9.999999747378752e-05,
        0.2618100047111511
      ],
      "type": "VEC2"
    },
    {
      "bufferView": 1,
      "byteOffset": 8944,
      "componentType": 5126,
      "count": 1118,
      "max": [
        0.9998999834060669,
        0.7616099715232849
      ],
      "min": [
        9.999999747378752e-05,
        0.2618100047111511
      ],
      "type": "VEC2"
    },
    {
      "bufferView": 1,
      "byteOffset": 17888,
      "componentType": 5126,
      "count": 1118,
      "max": [
        0.9998999834060669,
        0.7616099715232849
      ],
      "min": [
        9.999999747378752e-05,
        0.2618100047111511
      ],
      "type": "VEC2"
    },
    {
      "bufferView": 2,
      "byteOffset": 26832,
      "componentType": 5126,
      "count": 1118,
      "max": [
        0.0,
        0.0,
        0.0
      ],
      "min": [
        0.0,
        0.0,
        0.0
      ],
      "type": "VEC3"
    },
    {
      "bufferView": 2,
      "byteOffset": 40248,
      "componentType": 5126,
      "count": 1118,
      "max": [
        1.7881393432617188e-07,
        1.1920928955078125e-07,
        1.1920928955078125e-07
      ],
      "min": [
        -1.7881393432617188e-07,
        -1.1920928955078125e-07,
        -1.1920928955078125e-07
      ],
      "type": "VEC3"
    },
    {
      "bufferView": 2,
      "byteOffset": 53664,
      "componentType": 5126,
      "count": 1118,
      "max": [
        0.0,
        0.012258470058441162,
        0.01213882863521576
      ],
      "min": [
        0.0,
        -0.01202942430973053,
        -0.012140274047851563
      ],
      "type": "VEC3"
    },
    {
      "bufferView": 2,
      "byteOffset": 67080,
      "componentType": 5126,
      "count": 1118,
      "max": [
        0.00010169297456741333,
        0.4180111885070801,
        0.41829484701156616
      ],
      "min": [
        -0.00010169297456741333,
        -0.41809770464897156,
        -0.41830259561538696
      ],
      "type": "VEC3"
    },
    {
      "bufferView": 2,
      "byteOffset": 80496,
      "componentType": 5126,
      "count": 1118,
      "max": [
        7.582828402519226e-06,
        1.9997358322143555e-05,
        4.172325134277344e-06
      ],
      "min": [
        -6.923452019691467e-06,
        -1.551210880279541e-05,
        -3.7550926208496094e-06
      ],
      "type": "VEC3"
    },
    {
      "bufferView": 2,
      "byteOffset": 93912,
      "componentType": 5126,
      "count": 1118,
      "max": [
        0.003197677433490753,
        0.0008469820022583008,
        0.007199887651950121
      ],
      "min": [
        -0.004103496670722961,
        -0.0010268688201904297,
        -0.006298191845417023
      ],
      "type": "VEC3"
    },
    {
      "bufferView": 2,
      "byteOffset": 107328,
      "componentType": 5126,
      "count": 1118,
      "max": [
        0.0,
        0.0,
        0.0
      ],
      "min": [
        0.0,
        0.0,
        0.0
      ],
      "type": "VEC3"
    },
    {
      "bufferView": 2,
      "byteOffset": 120744,
      "componentType": 5126,
      "count": 1118,
      "max": [
        1.7881393432617188e-07,
        1.1920928955078125e-07,
        1.1920928955078125e-07
      ],
      "min": [
        -1.7881393432617188e-07,
        -1.1920928955078125e-07,
        -1.1920928955078125e-07
      ],
      "type": "VEC3"
    },
    {
      "bufferView": 0,
      "componentType": 5125,
      "count": 5760,
      "type": "SCALAR"
    },
    {
      "bufferView": 2,
      "byteOffset": 134160,
      "componentType": 5126,
      "count": 31680,
      "max": [
        0.191756010055542,
        0.22777150571346283,
        0.25301215052604675
      ],
      "min": [
        -0.1917559802532196,
        -0.0014234501868486404,
        -0.13545529544353485
      ],
      "type": "VEC3"
    },
    {
      "bufferView": 2,
      "byteOffset": 514320,
      "componentType": 5126,
      "count": 31680,
      "max": [
        0.9999839067459106,
        0.9999823570251465,
        0.9999772310256958
      ],
      "min": [
        -0.9999836683273315,
        -0.9998784065246582,
        -0.9988422989845276
      ],
      "type": "VEC3"
    },
    {
      "bufferView": 3,
      "componentType": 5126,
      "count": 31680,
      "max": [
        1.0,
        0.9999894499778748,
        0.9999510645866394,
        1.0
      ],
      "min": [
        -0.9999606609344482,
        -0.9999074935913086,
        -0.9999517202377319,
        -1.0
      ],
      "type": "VEC4"
    },
    {
      "bufferView": 1,
      "byteOffset": 26832,
      "componentType": 5126,
      "count": 31680,
      "max": [
        0.9980400204658508,
        0.7389500141143799
      ],
      "min": [
        0.0019499999471008778,
        0.0019500255584716797
      ],
      "type": "VEC2"
    },
    {
      "bufferView": 1,
      "byteOffset": 280272,
      "componentType": 5126,
      "count": 31680,
      "max": [
        0.9980400204658508,
        0.7389500141143799
      ],
      "min": [
        0.0019499999471008778,
        0.0019500255584716797
      ],
      "type": "VEC2"
    },
    {
      "bufferView": 1,
      "byteOffset": 533712,
      "componentType": 5126,
      "count": 31680,
      "max": [
        0.9980400204658508,
        0.7389500141143799
      ],
      "min": [
        0.0019499999471008778,
        0.0019500255584716797
      ],
      "type": "VEC2"
    },
    {
      "bufferView": 1,
      "byteOffset": 787152,
      "componentType": 5126,
      "count": 31680,
      "max": [
        0.9980400204658508,
        0.7389500141143799
      ],
      "min": [
        0.0019499999471008778,
        0.0019500255584716797
      ],
      "type": "VEC2"
    },
    {
      "bufferView": 2,
      "byteOffset": 894480,
      "componentType": 5126,
      "count": 31680,
      "max": [
        0.006054282188415527,
        0.0,
        0.0030057579278945923
      ],
      "min": [
        -0.006054282188415527,
        -0.003251120448112488,
        0.0
      ],
      "type": "VEC3"
    },
    {
      "bufferView": 2,
      "byteOffset": 1274640,
      "componentType": 5126,
      "count": 31680,
      "max": [
        0.1803056299686432,
        0.16643258929252625,
        0.12209361791610718
      ],
      "min": [
        -0.1803056299686432,
        -0.11012232303619385,
        -0.18342220783233643
      ],
      "type": "VEC3"
    },
    {
      "bufferView": 2,
      "byteOffset": 1654800,
      "componentType": 5126,
      "count": 31680,
      "max": [
        0.0,
        0.0,
        0.0
      ],
      "min": [
        0.0,
        0.0,
        0.0
      ],
      "type": "VEC3"
    },
    {
      "bufferView": 2,
      "byteOffset": 2034960,
      "componentType": 5126,
      "count": 31680,
      "max": [
        9.918957948684692e-05,
        6.747245788574219e-05,
        5.0127506256103516e-05
      ],
      "min": [
        -4.70280647277832e-05,
        -4.971027374267578e-05,
        -2.562999725341797e-05
      ],
      "type": "VEC3"
    },
    {
      "bufferView": 2,
      "byteOffset": 2415120,
      "componentType": 5126,
      "count": 31680,
      "max": [
        0.016391724348068237,
        0.01650559902191162,
        0.006051957607269287
      ],
      "min": [
        -0.01641068607568741,
        -0.015591904520988464,
        -0.0008400678634643555
      ],
      "type": "VEC3"
    },
    {
      "bufferView": 2,
      "byteOffset": 2795280,
      "componentType": 5126,
      "count": 31680,
      "max": [
        0.6120095252990723,
        0.709210991859436,
        0.9864165782928467
      ],
      "min": [
        -0.6103281378746033,
        -1.4938037395477295,
        -0.9974092841148376
      ],
      "type": "VEC3"
    },
    {
      "bufferView": 2,
      "byteOffset": 3175440,
      "componentType": 5126,
      "count": 31680,
      "max": [
        0.0,
        0.0,
        0.0
      ],
      "min": [
        0.0,
        0.0,
        0.0
      ],
      "type": "VEC3"
    },
    {
      "bufferView": 2,
      "byteOffset": 3555600,
      "componentType": 5126,
      "count": 31680,
      "max": [
        4.786252975463867e-05,
        4.416704177856445e-05,
        5.0127506256103516e-05
      ],
      "min": [
        -4.70280647277832e-05,
        -4.971027374267578e-05,
        -1.7881393432617188e-07
      ],
      "type": "VEC3"
    },
    {
      "bufferView": 0,
      "byteOffset": 23040,
      "componentType": 5125,
      "count": 181548,
      "type": "SCALAR"
    },
    {
      "bufferView": 4,
      "componentType": 5126,
      "count": 241,
      "max": [
        10.0
      ],
      "min": [
        0.0
      ],
      "type": "SCALAR"
    },
    {
      "bufferView": 4,
      "byteOffset": 964,
      "componentType": 5126,
      "count": 964,
      "max": [
        1.0
      ],
      "min": [
        0.0
      ],
      "type": "SCALAR"
    },
    {
      "bufferView": 4,
      "byteOffset": 4820,
      "componentType": 5126,
      "count": 241,
      "max": [
        10.0
      ],
      "min": [
        0.0
      ],
      "type": "SCALAR"
    },
    {
      "bufferView": 4,
      "byteOffset": 5784,
      "componentType": 5126,
      "count": 964,
      "max": [
        1.0
      ],
      "min": [
        0.0
      ],
      "type": "SCALAR"
    }
  ],
  "animations": [
    {
      "channels": [
        {
          "sampler": 0,
          "target": {
            "node": 4,
            "path": "weights"
          }
        },
        {
          "sampler": 1,
          "target": {
            "node": 5,
            "path": "weights"
          }
        }
      ],
      "name": "Animation",
      "samplers": [
        {
          "input": 30,
          "interpolation": "LINEAR",
          "output": 31
        },
        {
          "input": 32,
          "interpolation": "LINEAR",
          "output": 33
        }
      ]
    }
  ],
  "asset": {
    "extras": {
      "author": "kenchoo (https://sketchfab.com/kenchoo)",
      "license": "CC-BY-NC-ND-4.0 (http://creativecommons.org/licenses/by-nc-nd/4.0/)",
      "source": "https://sketchfab.com/3d-models/frog-ebce6aa962db491d87619a6a31a7af99",
      "title": "Frog"
    },
    "generator": "Sketchfab-16.8.0",
    "version": "2.0"
  },
  "bufferViews": [
    {
      "buffer": 0,
      "byteLength": 749232,
      "name": "floatBufferViews",
      "target": 34963
    },
    {
      "buffer": 0,
      "byteLength": 1040592,
      "byteOffset": 749232,
      "byteStride": 8,
      "name": "floatBufferViews",
      "target": 34962
    },
    {
      "buffer": 0,
      "byteLength": 3935760,
      "byteOffset": 1789824,
      "byteStride": 12,
      "name": "floatBufferViews",
      "target": 34962
    },
    {
      "buffer": 0,
      "byteLength": 506880,
      "byteOffset": 5725584,
      "byteStride": 16,
      "name": "floatBufferViews",
      "target": 34962
    },
    {
      "buffer": 0,
      "byteLength": 9640,
      "byteOffset": 6232464,
      "name": "floatBufferViews"
    }
  ],
  "buffers": [
    {
      "byteLength": 6242104,
      "uri": "scene.bin"
    }
  ],
  "extensionsUsed": [
    "KHR_materials_specular"
  ],
  "images": [
    {
      "uri": "textures/Eyes_baseColor.jpeg"
    },
    {
      "uri": "textures/Eyes_metallicRoughness.png"
    },
    {
      "uri": "textures/Eyes_specularf0.png"
    },
    {
      "uri": "textures/Frog_baseColor.jpeg"
    },
    {
      "uri": "textures/Frog_metallicRoughness.png"
    },
    {
      "uri": "textures/Frog_normal.jpeg"
    }
  ],
  "materials": [
    {
      "doubleSided": true,
      "extensions": {
        "KHR_materials_specular": {
          "specularColorFactor": [
            1.0,
            1.0,
            1.0
          ],
          "specularFactor": 1.0,
          "specularTexture": {
            "index": 2
          }
        }
      },
      "name": "Eyes",
      "pbrMetallicRoughness": {
        "baseColorTexture": {
          "index": 0
        },
        "metallicRoughnessTexture": {
          "index": 1,
          "texCoord": 1
        }
      }
    },
    {
      "doubleSided": true,
      "name": "Frog",
      "normalTexture": {
        "index": 5,
        "texCoord": 2
      },
      "pbrMetallicRoughness": {
        "baseColorTexture": {
          "index": 3
        },
        "metallicRoughnessTexture": {
          "index": 4,
          "texCoord": 1
        }
      }
    }
  ],
  "meshes": [
    {
      "name": "mesh_0",
      "primitives": [
        {
          "attributes": {
            "NORMAL": 1,
            "POSITION": 0,
            "TEXCOORD_0": 2,
            "TEXCOORD_1": 3,
            "TEXCOORD_2": 4
          },
          "indices": 13,
          "material": 0,
          "mode": 4,
          "targets": [
            {
              "NORMAL": 6,
              "POSITION": 5
            },
            {
              "NORMAL": 8,
              "POSITION": 7
            },
            {
              "NORMAL": 10,
              "POSITION": 9
            },
            {
              "NORMAL": 12,
              "POSITION": 11
            }
          ]
        }
      ],
      "weights": [
        0.0,
        0.0,
        0.0,
        0.0
      ]
    },
    {
      "name": "mesh_0",
      "primitives": [
        {
          "attributes": {
            "NORMAL": 15,
            "POSITION": 14,
            "TANGENT": 16,
            "TEXCOORD_0": 17,
            "TEXCOORD_1": 18,
            "TEXCOORD_2": 19,
            "TEXCOORD_3": 20
          },
          "indices": 29,
          "material": 1,
          "mode": 4,
          "targets": [
            {
              "NORMAL": 22,
              "POSITION": 21
            },
            {
              "NORMAL": 24,
              "POSITION": 23
            },
            {
              "NORMAL": 26,
              "POSITION": 25
            },
            {
              "NORMAL": 28,
              "POSITION": 27
            }
          ]
        }
      ],
      "weights": [
        0.0,
        0.0,
        0.0,
        0.0
      ]
    }
  ],
  "nodes": [
    {
      "children": [
        1
      ],
      "matrix": [
        1.0,
        0.0,
        0.0,
        0.0,
        0.0,
        2.220446049250313e-16,
        -1.0,
        0.0,
        0.0,
        1.0,
        2.220446049250313e-16,
        0.0,
        0.0,
        0.0,
        0.0,
        1.0
      ],
      "name": "Sketchfab_model"
    },
    {
      "children": [
        2
      ],
      "name": "root"
    },
    {
      "children": [
        3
      ],
      "matrix": [
        1.0,
        0.0,
        0.0,
        0.0,
        0.0,
        2.220446049250313e-16,
        1.0,
        0.0,
        0.0,
        -1.0,
        2.220446049250313e-16,
        0.0,
        0.0,
        0.0,
        0.0,
        1.0
      ],
      "name": "GLTF_SceneRootNode"
    },
    {
      "children": [
        4,
        5
      ],
      "name": "Frog_001_Eyes_0_0"
    },
    {
      "mesh": 0,
      "name": "mesh_0"
    },
    {
      "mesh": 1,
      "name": "mesh_0"
    }
  ],
  "samplers": [
    {
      "magFilter": 9729,
      "minFilter": 9987,
      "wrapS": 10497,
      "wrapT": 10497
    }
  ],
  "scene": 0,
  "scenes": [
    {
      "name": "Sketchfab_Scene",
      "nodes": [
        0
      ]
    }
  ],
  "textures": [
    {
      "sampler": 0,
      "source": 0
    },
    {
      "sampler": 0,
      "source": 1
    },
    {
      "sampler": 0,
      "source": 2
    },
    {
      "sampler": 0,
      "source": 3
    },
    {
      "sampler": 0,
      "source": 4
    },
    {
      "sampler": 0,
      "source": 5
    }
  ]
}
